<svg xmlns="http://www.w3.org/2000/svg" xmlns:xlink="http://www.w3.org/1999/xlink" id="Layer_1" data-name="Layer 1" viewBox="0 0 49.03 61.17"><defs><style>      .cls-1 {        fill: #4d4d4d;      }      .cls-2 {        clip-path: url(#clippath);      }      .cls-3 {        fill: none;      }    </style><clipPath id="clippath"><rect class="cls-3" x="0" width="49.03" height="61.17"></rect></clipPath></defs><g id="Group_19" data-name="Group 19"><g class="cls-2"><g id="Group_18" data-name="Group 18"><path id="Path_136" data-name="Path 136" class="cls-1" d="m33.52,27.7c4.53-5.59,4.84-13.74-.5-18.69-.03-.02-.07-.05-.11-.07-.03-.03-.05-.06-.09-.09-6.89-4.45-15.41-3.72-19.44,4-2.66,5.12-2.07,10.87,2.38,14.64,5.19,4.39,13.01,6.06,17.75.21m-17.23-2.33c-2.96-2.93-3.07-7.07-1.58-10.79,2.97-7.46,10.96-7.98,17.03-4.13,4.34,4.11,4.07,10.08,1.04,14.97-3.89,6.25-11.95,4.45-16.48-.05"></path><path id="Path_137" data-name="Path 137" class="cls-1" d="m32.72,43.74c2.37-3.36,4.62-6.8,6.69-10.33,4.82-8.24,6.79-16.94,1.14-25.58C34.77-1.03,20.6-2.45,12.51,3.99,5.13,9.88,3.09,21.14,6.95,29.48c2.51,5.21,5.6,10.12,9.19,14.64-5.49.41-18.01,1.17-15.91,8.6.86,3.04,5.45,5.19,8.05,6.3,4.59,1.95,10.77,2.21,15.73,2.13,5.72-.09,12.46-.61,17.89-2.48,2.44-.84,6.47-2.8,7.01-5.6,1.43-7.46-10.5-8.9-16.19-9.33m4.74,2.66l-.55.23s-.06-.07-.1-.1c-.15-.11-.31-.22-.47-.33.37.07.75.13,1.12.2m-2.63,1.09l-.58.24c-1.05-.58-2.06-1.22-3.04-1.92.06-.08.11-.16.17-.23.32.02.64.06.96.09.05.06.11.12.17.17.76.57,1.54,1.11,2.32,1.66m-2.82,1.15c-.18.08-.36.15-.55.22-.55-.38-1.08-.79-1.63-1.17.08-.11.16-.22.24-.33.64.43,1.29.86,1.94,1.27M9.18,11.31C14.68.07,32.95-1.72,39.42,9.66c4.94,8.69,2.28,16.27-2.47,24.11-3.75,6.1-7.86,11.96-12.32,17.56C15.19,40.72,1.96,26.08,9.18,11.31m20.21,38.41c-.54.23-1.08.45-1.61.68.3-.39.61-.78.91-1.17.24.16.48.32.71.49m15.46,5.21c-5.56,3.78-14.27,4.21-20.83,4.29-6.39.09-13.92-.32-19.17-4.37-2.44-1.88-2.53-5.65.64-7.01,1.01-.35,2.05-.6,3.11-.73,2.9-.56,5.84-.88,8.78-1.16.06-.01.12-.03.18-.05,2.1,2.63,4.28,5.17,6.45,7.62.13.15.32.25.51.28.24.08.5.02.69-.14,4.95-2.31,10.07-4.21,15.09-6.36.11-.05.21-.12.29-.21,3.7,1.08,9.56,4.24,4.27,7.84"></path><path id="Path_138" data-name="Path 138" class="cls-1" d="m19.54,10.82c-4.22,2.6-4.41,7.57-3.59,11.98.23,1.22,2.09.7,1.86-.51-.65-3.51-.71-7.69,2.7-9.8,1.06-.65.09-2.32-.97-1.67"></path><path id="Path_139" data-name="Path 139" class="cls-1" d="m22.23,9.55c-.53,0-.97.43-.97.97,0,.53.43.97.97.97.53,0,.97-.43.97-.97s-.43-.97-.97-.97"></path></g></g></g></svg>