<svg xmlns="http://www.w3.org/2000/svg" xmlns:xlink="http://www.w3.org/1999/xlink" id="Layer_1" data-name="Layer 1" viewBox="0 0 63.24 56.6"><defs><style>      .cls-1 {        fill: #014737;      }      .cls-2 {        clip-path: url(#clippath);      }      .cls-3 {        fill: none;      }    </style><clipPath id="clippath"><rect class="cls-3" x="0" width="63.24" height="56.6"></rect></clipPath></defs><g class="cls-2"><g id="Group_16" data-name="Group 16"><path id="Path_133" data-name="Path 133" class="cls-1" d="m62.13.05c-10.33,3.83-20.04,9.11-30.03,13.72C21.43,18.68,11,24.08.43,29.18c-.42.26-.56.81-.3,1.24.12.19.3.33.51.39,6.93.98,13.74,2.48,20.56,4.06.13,6.96-.07,13.91.05,20.87.02.5.43.89.93.87.3-.01.57-.17.73-.42,3.61-5.18,7.25-10.36,11.13-15.35,5.38,3.24,10.78,6.48,15.89,10.12.43.25.98.09,1.23-.34.03-.06.06-.13.08-.19,1.58-8.32,3.26-16.43,5.6-24.58,2.35-8.18,4.56-16.39,6.38-24.71.13-.61-.42-1.35-1.1-1.1M27.27,35.16c-.24.16-.4.42-.43.71-.39.77-.68,1.58-.86,2.42-1.05,4.22-1.81,8.54-2.99,12.73,0-5.58.1-11.17-.02-16.75,10.57-9.32,21.47-18.38,32.55-27.14-6.6,6.51-13.2,13.01-19.8,19.51-2.04,2-4.08,4-6.12,6-.85.77-1.63,1.61-2.32,2.52M57.71,3.7c-12.12,9.51-24.06,19.37-35.61,29.55-6.07-1.41-12.12-2.76-18.27-3.75,9.41-4.58,18.72-9.38,28.22-13.76,8.56-3.95,16.94-8.4,25.65-12.03M24.38,50.99c1.02-3.72,1.73-7.53,2.63-11.27.19-.91.45-1.81.77-2.68,1.57.97,3.15,1.94,4.73,2.89-2.8,3.62-5.49,7.33-8.13,11.07m30.74-25.61c-2.22,7.73-3.85,15.43-5.36,23.31-6.81-4.74-14.06-8.83-21.1-13.21.05-.07.1-.14.16-.21.82-.97,1.86-1.83,2.78-2.72,2.06-2.02,4.12-4.04,6.17-6.06,7.69-7.56,15.37-15.12,23.03-22.7-1.68,7.25-3.63,14.44-5.69,21.59"></path><path id="Path_134" data-name="Path 134" class="cls-1" d="m15.99,29.03l6.41-3.54c.75-.42.08-1.57-.67-1.15l-6.41,3.54c-.75.42-.08,1.57.67,1.15"></path><path id="Path_135" data-name="Path 135" class="cls-1" d="m22.07,27.2l-3.01,1.57c-.76.4-.09,1.55.67,1.15l3.01-1.57c.76-.4.09-1.55-.67-1.15"></path></g></g></svg>