<svg xmlns="http://www.w3.org/2000/svg" xmlns:xlink="http://www.w3.org/1999/xlink" id="Layer_1" data-name="Layer 1" viewBox="0 0 33.63 54.22"><defs><style>      .cls-1 {        fill: #014737;      }      .cls-2 {        clip-path: url(#clippath);      }      .cls-3 {        fill: none;      }    </style><clipPath id="clippath"><rect class="cls-3" width="33.61" height="54.22"></rect></clipPath></defs><g class="cls-2"><g id="Group_20" data-name="Group 20"><path id="Path_140" data-name="Path 140" class="cls-1" d="m33.54,40.15c0-3.59-.07-7.18-.18-10.76-.2-6.83-.48-13.67-.89-20.5-.28-4.73-2.1-7.6-7.02-8.35C19.94-.31,14.13.02,8.6.35c-2.49.15-5.02.39-6.53,2.63C.59,5.18.53,8.33.29,10.88c-.69,7.15.1,14.45-.07,21.63-.02,4.73-.17,9.49.25,14.21.26,2.94.88,5.2,3.71,6.7,1.96,1.04,4.96.76,7.07.78,3.76.03,7.51-.22,11.27-.31,4.29-.1,10.01.1,10.85-5.36.27-2.79.33-5.59.18-8.38m-1.72,8.06c-.76,3.97-4.47,4.07-7.77,4.1-5.29.05-10.59.56-15.89.25-2.13-.12-4.65-.67-5.65-2.84-.61-1.31-.52-3.12-.6-4.53-.24-4.22-.15-8.45-.14-12.67.11-4.71.07-9.41-.12-14.11-.11-2.51-.05-5.02.19-7.52.28-2.88.3-7.28,3.53-8.55,2.12-.83,5.14-.54,7.41-.62,2.34-.08,4.68-.11,7.01-.03,2.26-.04,4.52.17,6.73.64,3.4.93,4.2,3.31,4.4,6.57.65,10.57,1.07,21.19,1.07,31.77,0,2.43.29,5.16-.17,7.55"></path><path id="Path_141" data-name="Path 141" class="cls-1" d="m13.69,5.58c2.06-.1,4.13-.15,6.19-.14.32,0,.58-.26.58-.58s-.26-.58-.58-.58c-2.07,0-4.13.05-6.19.14-.75.04-.75,1.2,0,1.17"></path><path id="Path_142" data-name="Path 142" class="cls-1" d="m22.46,5.32l.03-.03c.22-.24.21-.6-.03-.82-.22-.21-.57-.21-.8,0l-.03.03c-.22.24-.21.6.03.82.22.21.57.21.8,0"></path><path id="Path_143" data-name="Path 143" class="cls-1" d="m24.82,5.35l.03-.03c.22-.24.21-.6-.03-.82-.22-.21-.57-.21-.8,0l-.03.03c-.22.24-.21.6.03.82.22.21.57.21.8,0"></path><path id="Path_144" data-name="Path 144" class="cls-1" d="m17.24,47.85c-1.62-.02-4.78-.38-4.99,1.94-.19,2.14,3.25,1.9,4.58,1.86,1.27-.04,4.42.12,4.5-1.76.11-2.42-2.48-2.06-4.1-2.04m2.72,2.17c-.51.6-2.62.46-3.39.47-.54,0-2.78.11-2.95-.28-.67-1.49,3.06-1.2,3.62-1.2.51,0,3.79-.23,2.72,1"></path><path id="Path_145" data-name="Path 145" class="cls-1" d="m30.1,8.13h0s-.02-.04-.04-.06c-.09-.19-.28-.31-.49-.3-8.7.07-17.41.45-26.12.32-.22-.01-.43.12-.51.33v.02s-.02.04-.03.05c-.03.06-.04.12-.05.18-.38,6.11.23,12.23.11,18.35-.14,6.51-.51,13-.31,19.51,0,.1.03.2.09.28.09.2.29.32.5.3,4.55-.12,9.08.06,13.63-.19,4.6-.25,9.19.06,13.79-.07.09,0,.18-.03.26-.07.21-.08.34-.29.32-.51-.6-12.63-.5-25.3-1.1-37.92,0-.08-.02-.15-.06-.22m-13.22,37.63c-4.36.23-8.7.09-13.06.18-.16-6.31.19-12.61.32-18.92.12-5.92-.44-11.85-.13-17.77,8.34.11,16.67-.24,25-.32.56,12.24.49,24.52,1.05,36.76-4.4.09-8.78-.18-13.19.06"></path><path id="Path_146" data-name="Path 146" class="cls-1" d="m9.54,12.28c-1.12.92-2.06,2.04-2.77,3.3-.15.28-.05.64.24.79.27.14.6.06.77-.2.67-1.17,1.55-2.21,2.59-3.07.58-.48-.25-1.3-.82-.82"></path><path id="Path_147" data-name="Path 147" class="cls-1" d="m12.07,12.69l-2.11,2.49c-.48.57.34,1.4.82.82l2.11-2.49c.48-.57-.34-1.4-.82-.82"></path></g></g></svg>